<svg width="275" height="337" viewBox="0 0 275 337" fill="none" xmlns="http://www.w3.org/2000/svg">
<g clip-path="url(#clip0_104_9570)">
<path fill-rule="evenodd" clip-rule="evenodd" d="M181.391 2.24043C170.703 3.2297 158.108 6.6255 145.611 11.8873C138.449 14.9025 131.471 18.3325 121.055 23.9571C106.915 31.5933 104.119 33.3737 103.433 35.1778C102.795 36.8566 104.329 40.134 107.184 43.191C111.054 47.335 118.854 53.9572 128.394 61.1972L132.401 64.2382L132.583 56.0676C132.758 48.2008 132.792 47.8974 133.494 47.8974C134.198 47.8974 134.229 48.215 134.446 57.5497C134.692 68.1476 135.017 72.1192 135.638 72.1192C135.861 72.1192 138.748 71.7207 142.053 71.2337C156.003 69.1784 168.167 69.029 178.205 70.7905C183.693 71.7535 194.333 74.3458 199.239 75.9149C200.741 76.3954 202.012 76.7483 202.063 76.6988C202.114 76.6492 203.472 70.8043 205.081 63.71C207.296 53.9492 207.922 50.6211 207.655 50.0292C207.16 48.9332 200.221 44.3777 195.795 42.2426C182.616 35.8859 168.352 34.4355 155.166 38.1121C150.773 39.3367 149.884 39.3898 149.884 38.4272C149.884 37.522 152.1 36.7207 158.08 35.463C167.946 33.3883 178.646 34.0567 188.676 37.3741C196.757 40.0469 207.833 46.4808 209.213 49.3026L209.898 50.706L206.738 64.6836L203.579 78.6617L205.393 81.0292C206.392 82.3314 207.369 83.6838 207.565 84.0345C207.894 84.6221 208.125 84.5743 210.501 83.4248C212.225 82.5907 213.08 81.9679 213.08 81.5457C213.08 81.1563 213.882 80.4636 215.174 79.738C219.29 77.4265 227.527 71.7827 230.977 68.9103C238.687 62.4917 241.765 56.5564 239.747 51.9965C237.958 47.9516 231.768 39.1101 225.41 31.5161C209.898 12.9913 194.971 1.61722 186.505 1.87073C185.595 1.89805 183.294 2.0645 181.391 2.24043ZM155.437 76.5134C151.369 84.9768 143.761 92.6175 133.427 98.6172L129.507 100.893L129.005 99.9361C128.528 99.0251 128.395 98.9876 126.253 99.1595C120.857 99.5926 117.699 103.221 118.084 108.544C118.445 113.531 122.925 118.4 127.995 119.315C129.363 119.562 129.408 119.539 129.181 118.702C129.051 118.223 128.837 116.71 128.705 115.34C128.468 112.873 128.474 112.85 129.327 112.973C130.123 113.087 130.237 113.391 130.828 117.001C133.235 131.687 144.044 143.822 158.08 147.595C162.168 148.694 171.478 148.797 175.155 147.784C184.953 145.084 191.493 139.409 196.146 129.572C198.387 124.834 199.326 121.424 200.988 112.003C201.187 110.876 201.41 110.546 201.972 110.546C202.629 110.546 202.689 110.757 202.597 112.732C202.513 114.546 201.41 120.242 200.456 123.791C200.232 124.626 200.273 124.644 201.826 124.396C207.693 123.459 212.235 118.754 212.635 113.198C212.873 109.903 211.615 107.163 209.146 105.597C206.533 103.94 205.393 103.875 203.639 105.285L202.165 106.469L200.247 105.195C197.176 103.155 194.896 100.613 193.47 97.6378C192.358 95.3176 192.149 94.4667 192.018 91.7189L191.865 88.5099H189.75C185.148 88.5099 179.082 87.2693 173.885 85.2649C168.882 83.3356 164.873 80.7043 160.795 76.6722L157.111 73.0298L155.437 76.5134ZM152.616 88.0306C150.732 88.3719 146.926 89.6034 146.268 90.0849C145.464 90.6728 145.787 91.4239 146.844 91.4239C147.252 91.4239 148.677 91.0942 150.01 90.691C151.343 90.2882 153.663 89.8376 155.166 89.6893C157.565 89.4533 157.898 89.332 157.898 88.6921C157.898 88.0499 157.638 87.9578 155.712 87.9144C154.51 87.8875 153.117 87.9399 152.616 88.0306ZM178.238 91.6216C177.929 92.4299 178.254 92.6266 180.749 93.1354C181.974 93.3853 184.195 94.168 185.682 94.8746C188.599 96.2595 189.768 96.4722 189.768 95.6177C189.768 94.7942 187.238 93.2946 183.87 92.1225C180.463 90.9365 178.566 90.7679 178.238 91.6216ZM152.278 100.033C150.907 101.775 151.507 106.218 153.2 106.868C154.976 107.549 156.462 105.325 156.181 102.405C155.879 99.2564 153.856 98.0271 152.278 100.033ZM124.369 102.127C122.864 102.794 121.395 104.619 120.908 106.43C120.169 109.174 121.53 112.616 124.184 114.718C125.937 116.106 127.255 116.318 127.411 115.236C127.495 114.651 127.126 114.231 125.896 113.509C121.334 110.836 121.414 104.721 126.027 103.541C126.933 103.31 127.302 103.011 127.302 102.51C127.302 101.62 125.921 101.439 124.369 102.127ZM170.355 102.217C170.215 102.358 170.1 106.297 170.1 110.971V119.47H167.776C165.191 119.47 164.15 120.085 165 121.109C165.323 121.498 166.176 121.656 167.959 121.656C172.068 121.656 171.953 121.967 171.836 111.182C171.752 103.393 171.663 102.164 171.174 102.07C170.864 102.01 170.495 102.076 170.355 102.217ZM179.94 102.891C178.101 104.849 179.142 109.818 181.391 109.818C183.504 109.818 184.587 105.342 182.994 103.198C181.985 101.841 181.017 101.744 179.94 102.891ZM204.176 108.146C203.875 108.634 204.344 109.636 204.874 109.636C205.125 109.636 205.764 110.068 206.292 110.596C207.514 111.819 207.591 113.992 206.476 115.821C205.567 117.313 204.943 117.862 203.336 118.584C201.181 119.552 202.198 121.085 204.393 120.176C206.056 119.487 207.551 118.111 208.361 116.525C209.309 114.665 209.309 111.666 208.359 110.109C207.337 108.432 204.75 107.218 204.176 108.146ZM264.015 110.455C263.706 110.706 262.507 112.101 261.351 113.556C260.097 115.133 258.879 116.293 258.332 116.431C257.827 116.557 255.817 116.458 253.866 116.209C249.857 115.698 248.775 115.964 248.775 117.459C248.775 118.079 249.386 118.848 250.858 120.086C252.005 121.05 253.502 122.376 254.186 123.035C255.565 124.361 255.505 123.547 254.755 130.814C254.523 133.056 254.563 133.264 255.296 133.657C256.528 134.315 257.175 133.892 259.522 130.892C262.406 127.206 262.906 127.011 267.637 127.741C271.666 128.362 272.456 128.178 272.445 126.619C272.437 125.57 272.313 125.428 269.09 122.786C265.762 120.058 265.619 119.642 266.393 114.917C266.862 112.056 266.863 111.535 266.404 110.82C265.819 109.909 264.868 109.764 264.015 110.455ZM93.91 117.857C92.0251 119.272 88.9199 123.165 86.8853 126.664C85.9824 128.216 85.3373 128.94 84.8565 128.94C84.3772 128.94 83.8581 129.519 83.2349 130.75C82.7308 131.744 82.3181 132.618 82.3181 132.691C82.3181 132.763 83.1832 132.666 84.2409 132.475C85.8155 132.189 86.7167 132.266 89.2204 132.899C90.9018 133.324 92.3121 133.632 92.3543 133.583C92.6308 133.262 95.0901 128.028 95.7764 126.3C96.3843 124.768 96.7955 124.205 97.3058 124.205C97.6893 124.205 98.0864 124.422 98.188 124.686C98.392 125.218 96.338 130.235 94.7864 132.995L93.7964 134.756L94.7732 135.733L95.7505 136.711L96.6778 134.613C99.7571 127.651 100.948 119.261 99.1503 117.194C98.1854 116.085 95.8827 116.376 93.91 117.857ZM150.909 123.342C150.313 124.895 154.871 130.15 158.131 131.667C160.573 132.804 163.179 132.92 163.179 131.893C163.179 131.156 162.515 130.767 161.237 130.754C158.952 130.73 155.586 128.235 153.301 124.87C151.803 122.664 151.294 122.339 150.909 123.342ZM82.9555 134.797C81.3234 135.748 83.3864 138.167 86.976 139.511C89.2208 140.351 93.1291 140.481 94.1307 139.749C95.6234 138.657 93.058 136.01 89.4772 134.947C87.3912 134.327 83.9 134.247 82.9555 134.797ZM137.151 136.565C136.77 137.182 136.843 140.377 137.241 140.51C137.894 140.727 137.803 142.126 136.239 155.894L134.81 168.46L135.791 169.29C137.517 170.751 147.444 175.503 151.462 176.793C157.57 178.753 159.206 179.013 165.364 178.995C170.223 178.981 171.619 178.837 175.375 177.962C181.038 176.643 185.611 174.986 191.134 172.254C195.183 170.251 195.596 169.956 195.594 169.071C195.593 168.535 194.938 161.622 194.139 153.709C193.34 145.796 192.685 139.259 192.684 139.182C192.683 139.105 191.395 140.272 189.822 141.775C185.387 146.012 180.273 148.663 174.148 149.9C169.481 150.842 161.211 150.498 156.805 149.179C150.522 147.297 145.195 144.114 140.305 139.317C138.643 137.687 137.223 136.448 137.151 136.565ZM123.968 172.116C123.85 172.424 124.06 173.017 124.435 173.434C125.766 174.916 130.992 178.919 134.222 180.931C151.914 191.952 170.698 193.247 187.984 184.637C193.665 181.808 203.398 174.624 203.168 173.43C202.94 172.242 201.884 172.687 198.504 175.398C179.678 190.493 158.562 192.394 138.031 180.841C134.436 178.818 127.967 174.176 126.419 172.508C125.433 171.446 124.295 171.264 123.968 172.116ZM250.022 190.991C248.267 191.563 244.768 193.419 244.768 193.776C244.768 193.914 245.07 194.299 245.439 194.633C246.068 195.203 246.248 195.168 248.41 194.052C250.562 192.942 250.952 192.864 254.388 192.864C257.616 192.864 258.317 192.983 260.152 193.843C262.827 195.097 265.672 197.946 266.91 200.609C267.731 202.377 267.882 203.202 267.889 205.977C267.897 208.91 267.778 209.504 266.759 211.623C266.133 212.925 264.923 214.682 264.071 215.529C262.527 217.061 262.523 217.072 263.15 218.03L263.781 218.991L265.532 217.266C273.279 209.636 271.112 196.737 261.27 191.891C259.071 190.809 258.477 190.683 255.17 190.599C252.861 190.54 250.958 190.685 250.022 190.991ZM9.50175 218.849C9.27811 219.267 9.25298 220.809 9.43473 222.947C9.83503 227.651 9.58261 228.178 5.68199 230.773C2.33208 233.003 1.74457 233.843 2.75424 234.958C3.33301 235.598 3.74132 235.64 7.43106 235.435C12.2638 235.167 12.4087 235.243 15.1518 239.477C17.189 242.621 18.2657 243.228 19.3748 241.858C19.7463 241.4 19.9707 240.76 19.8738 240.438C19.7766 240.115 19.6498 238.352 19.5923 236.521C19.4684 232.604 19.5096 232.535 23.5737 229.785C26.5554 227.768 27.183 226.937 26.5776 225.806C26.1999 225.099 25.9081 225.061 21.6892 225.168C16.4303 225.301 16.6947 225.439 13.8172 221.056C12.1927 218.582 11.7833 218.179 10.8942 218.179C10.263 218.179 9.72066 218.44 9.50175 218.849ZM72.4334 243.152C68.4596 243.871 65.8928 244.932 63.9117 246.676C62.0847 248.285 61.1923 249.903 61.1923 251.608V252.643L64.0151 252.335C66.9196 252.019 72.4979 252.402 76.0365 253.161C77.5087 253.476 77.9473 253.726 77.9473 254.247C77.9473 255.282 77.5255 255.356 74.8097 254.796C68.0687 253.407 60.2893 253.919 57.4414 255.938C54.8272 257.792 54.0372 260.64 55.1343 264.255L55.5761 265.712H60.2966C64.9144 265.712 65.0193 265.73 65.1333 266.531C65.2 267.002 65.0579 267.351 64.7993 267.351C64.5517 267.351 64.4304 267.432 64.5294 267.531C64.6285 267.631 69.4503 266.978 75.2442 266.081C87.5617 264.173 102.267 262.18 110.638 261.282C114.519 260.866 116.557 260.502 116.557 260.225C116.557 259.992 115.186 258.486 113.51 256.877C105.6 249.283 97.0854 244.761 87.6429 243.139C83.684 242.458 76.2288 242.465 72.4334 243.152ZM168.005 258.984C134.947 260.201 102.419 263.626 64.2577 269.907C58.231 270.899 51.8386 272.129 50.0524 272.641C41.9758 274.956 35.9251 279.153 32.7376 284.652C26.9477 294.642 29.4103 311.296 37.8442 319.185C44.4311 325.347 54.9503 328.424 68.4093 328.128C71.6656 328.056 72.9707 328.152 73.1725 328.479C73.3888 328.829 74.2142 328.844 76.8826 328.546C89.0263 327.191 104.616 323.553 119.053 318.704L123.552 317.193L129.069 319.185C165.741 332.429 198.986 336.724 229.392 332.147C235.053 331.295 238.458 330.254 242.856 328.034C254.801 322.004 263.531 310.937 268.397 295.657C269.863 291.053 271.446 283.808 271.919 279.536C272.146 277.491 272.092 277.249 271.168 276.151C269.968 274.724 268.273 273.82 265.144 272.937C263.196 272.388 261.409 272.275 254.603 272.272C242.502 272.266 238.903 272.835 227.649 276.529C208.07 282.957 189.542 290.302 166.327 300.837C155.498 305.752 145.713 309.892 137.015 313.238C131.953 315.185 130.991 315.452 130.563 315.023C130.286 314.746 130.177 314.335 130.32 314.109C130.463 313.882 133.038 312.754 136.043 311.6C144.366 308.406 155.747 303.601 166.639 298.681C188.947 288.607 207.281 281.322 225.734 275.201C232.278 273.031 233.069 272.685 232.768 272.121C232.106 270.886 227.121 266.493 224.4 264.747C221.045 262.595 217.378 261.031 212.742 259.776L209.255 258.832L192.5 258.766C183.285 258.729 172.262 258.827 168.005 258.984ZM56.2751 267.974C55.0953 268.127 52.9554 269.522 53.9075 269.517C54.208 269.516 56.5847 269.126 59.189 268.65L63.9241 267.784L60.6459 267.808C58.8429 267.821 56.8761 267.896 56.2751 267.974Z" fill="#FBFBFB"/>
<path fill-rule="evenodd" clip-rule="evenodd" d="M177.931 0.568576C161.027 2.85964 145.097 8.78324 120.745 21.8339C108.83 28.2197 104.967 30.5297 102.941 32.4821C101.184 34.1761 101.166 34.2162 101.325 36.1288C101.624 39.7278 102.997 41.9304 108.064 46.935L112.658 51.4724L112.42 56.6904C111.675 73.1041 107.486 91.6788 101.105 106.867C99.3056 111.149 99.1213 112.087 100.012 112.429C100.874 112.759 101.362 112.022 103.187 107.632C109.457 92.5544 113.499 74.7614 114.661 57.121L114.917 53.232L120.262 57.4852C123.203 59.8243 127.166 62.8858 129.07 64.2881C130.974 65.6904 132.623 67.1656 132.734 67.5662C132.846 67.9669 132.939 69.06 132.942 69.995C132.947 71.5386 132.833 71.7663 131.708 72.4616C127.147 75.2801 124.718 81.5391 125.592 88.2204C126.055 91.7597 127.514 96.9861 128.68 99.2808L129.501 100.897L133.424 98.619C143.761 92.6175 151.368 84.9779 155.437 76.5134L157.111 73.0298L160.795 76.6722C164.873 80.7043 168.881 83.3356 173.885 85.2649C179.082 87.2693 185.148 88.5099 189.75 88.5099H191.864L192.018 91.7189C192.149 94.4667 192.358 95.3175 193.47 97.6377C194.895 100.61 197.175 103.155 200.238 105.19L202.148 106.458L203.881 105.113C206.049 103.43 207.679 101.395 208.976 98.7552C209.891 96.8932 209.983 96.3378 209.983 92.6987C209.983 88.9233 209.916 88.5555 208.815 86.3245C208.172 85.0223 206.731 82.7637 205.613 81.3057L203.58 78.6544L206.739 64.68L209.898 50.706L209.212 49.3026C207.833 46.4808 196.757 40.0469 188.676 37.3741C178.646 34.0567 167.946 33.3883 158.08 35.463C152.099 36.7207 149.884 37.522 149.884 38.4272C149.884 39.3898 150.773 39.3367 155.166 38.1121C168.352 34.4355 182.615 35.8859 195.795 42.2425C200.221 44.3777 207.16 48.9332 207.655 50.0292C207.922 50.6211 207.296 53.9492 205.081 63.71C203.472 70.8043 202.113 76.6492 202.062 76.6988C202.012 76.7483 200.741 76.3954 199.238 75.9149C194.333 74.3458 183.693 71.7535 178.204 70.7905C168.167 69.029 156.003 69.1783 142.053 71.2337C138.748 71.7207 135.861 72.1192 135.638 72.1192C135.017 72.1192 134.692 68.1475 134.446 57.5497C134.229 48.215 134.198 47.8973 133.493 47.8973C132.792 47.8973 132.758 48.2008 132.583 56.0676L132.401 64.2382L128.394 61.1972C118.854 53.9572 111.053 47.335 107.183 43.191C104.328 40.134 102.795 36.8566 103.433 35.1778C104.119 33.3737 106.915 31.5933 121.055 23.9571C147.459 9.69821 164.193 3.7706 182.53 2.18106C188.669 1.64891 190.312 1.93629 195.172 4.39381C203.477 8.59202 214.472 18.4534 225.41 31.5161C231.768 39.1101 237.958 47.9516 239.747 51.9965C241.764 56.5564 238.687 62.4917 230.977 68.9103C227.527 71.7826 219.29 77.4265 215.174 79.738C213.523 80.6653 213.08 81.1013 213.08 81.7981C213.08 82.3496 213.29 82.6821 213.638 82.6821C214.212 82.6821 219.938 79.3399 223.825 76.7363C231.161 71.8216 238.457 65.0694 240.483 61.3195C242.019 58.4748 242.684 55.4385 242.222 53.3773C241.51 50.1975 238.051 44.3952 232.499 37.0627C219.05 19.3054 202.367 4.25831 192.323 0.829006C189.499 -0.135133 183.875 -0.236755 177.931 0.568576ZM152.616 88.0306C150.732 88.3719 146.926 89.6034 146.268 90.0849C145.464 90.6728 145.787 91.4238 146.844 91.4238C147.252 91.4238 148.676 91.0942 150.01 90.691C151.343 90.2882 153.663 89.8376 155.166 89.6893C157.565 89.4533 157.897 89.332 157.897 88.6921C157.897 88.0499 157.638 87.9578 155.712 87.9144C154.51 87.8875 153.117 87.9399 152.616 88.0306ZM178.238 91.6216C177.928 92.4299 178.254 92.6266 180.749 93.1354C181.974 93.3853 184.195 94.168 185.682 94.8746C188.599 96.2595 189.768 96.4722 189.768 95.6177C189.768 94.7941 187.238 93.2946 183.87 92.1224C180.463 90.9365 178.566 90.7678 178.238 91.6216ZM152.278 100.033C150.907 101.775 151.507 106.218 153.2 106.868C154.976 107.549 156.462 105.325 156.181 102.405C155.879 99.2564 153.856 98.0271 152.278 100.033ZM124.369 102.127C122.863 102.794 121.395 104.619 120.908 106.43C120.169 109.174 121.53 112.616 124.184 114.718C125.937 116.106 127.255 116.318 127.411 115.236C127.495 114.651 127.126 114.231 125.895 113.509C121.333 110.836 121.413 104.721 126.027 103.541C126.932 103.31 127.301 103.011 127.301 102.51C127.301 101.62 125.921 101.439 124.369 102.127ZM170.355 102.217C170.214 102.358 170.099 106.297 170.099 110.971V119.47H167.776C165.191 119.47 164.15 120.085 165 121.109C165.323 121.498 166.176 121.656 167.958 121.656C172.068 121.656 171.953 121.967 171.836 111.182C171.752 103.393 171.662 102.164 171.174 102.07C170.864 102.01 170.495 102.076 170.355 102.217ZM179.94 102.891C178.101 104.849 179.142 109.818 181.391 109.818C183.503 109.818 184.587 105.342 182.993 103.198C181.985 101.841 181.017 101.744 179.94 102.891ZM204.176 108.146C203.874 108.634 204.344 109.636 204.874 109.636C205.125 109.636 205.763 110.068 206.292 110.596C207.514 111.819 207.591 113.992 206.476 115.821C205.566 117.313 204.942 117.862 203.336 118.584C201.181 119.552 202.198 121.085 204.393 120.176C206.056 119.487 207.551 118.111 208.36 116.525C209.309 114.665 209.309 111.666 208.359 110.109C207.337 108.432 204.75 107.218 204.176 108.146ZM263.527 108.386C262.926 108.691 261.614 110.006 260.613 111.309C257.707 115.087 258.143 114.9 253.845 114.219C250.342 113.665 250.055 113.668 248.815 114.274C247.205 115.061 246.436 116.534 246.752 118.221C246.937 119.206 247.612 119.984 250.044 122.015C251.727 123.42 253.197 124.722 253.311 124.906C253.425 125.091 253.27 126.898 252.967 128.921C252.289 133.433 252.663 134.816 254.803 135.71C256.939 136.602 258.087 135.98 261.004 132.354L263.517 129.229L265.343 129.444C272.074 130.238 272.314 130.225 273.52 129.019C274.379 128.161 274.636 127.58 274.636 126.5C274.636 124.677 274.173 124.067 270.811 121.458L268.015 119.288L268.216 117.285C268.327 116.183 268.528 114.345 268.663 113.2C268.96 110.674 268.403 109.093 266.954 108.344C265.665 107.678 264.904 107.687 263.527 108.386ZM264.015 110.455C263.706 110.706 262.507 112.101 261.351 113.556C260.097 115.133 258.879 116.293 258.331 116.431C257.827 116.557 255.817 116.458 253.865 116.209C249.857 115.698 248.775 115.964 248.775 117.459C248.775 118.079 249.385 118.848 250.858 120.086C252.005 121.05 253.502 122.376 254.186 123.035C255.565 124.361 255.505 123.547 254.755 130.814C254.523 133.056 254.563 133.264 255.296 133.657C256.527 134.315 257.175 133.892 259.522 130.892C262.406 127.206 262.906 127.011 267.637 127.741C271.665 128.362 272.456 128.178 272.445 126.619C272.437 125.57 272.313 125.428 269.09 122.786C265.762 120.058 265.619 119.642 266.393 114.917C266.862 112.056 266.863 111.535 266.404 110.82C265.819 109.909 264.868 109.764 264.015 110.455ZM201.268 110.686C201.159 110.863 200.899 112.215 200.692 113.691C198.387 130.108 190.43 142.256 179.237 146.45C174.668 148.162 173.045 148.424 167.003 148.425C160.009 148.428 157.024 147.768 151.325 144.96C140.448 139.602 132.828 129.207 130.828 117.001C130.251 113.482 130.109 113.084 129.382 112.979C128.375 112.834 128.341 113.637 129.144 118.655C130.333 126.081 133.755 132.615 139.503 138.438C145.032 144.037 150.061 147.159 156.805 149.179C161.211 150.498 169.481 150.842 174.148 149.9C180.273 148.663 185.387 146.012 189.822 141.775C191.395 140.272 192.683 139.105 192.684 139.182C192.685 139.259 193.34 145.796 194.139 153.709C194.938 161.622 195.593 168.535 195.594 169.071C195.596 169.956 195.183 170.251 191.134 172.254C185.611 174.986 181.038 176.643 175.375 177.962C171.619 178.837 170.223 178.981 165.364 178.995C159.205 179.013 157.57 178.753 151.462 176.793C147.444 175.503 137.517 170.751 135.791 169.29L134.81 168.46L136.238 155.894C137.024 148.983 137.67 142.731 137.674 142.001C137.682 140.666 137.098 140.057 136.289 140.557C136.038 140.711 135.355 145.454 134.574 152.452C133.86 158.852 133.209 164.417 133.127 164.818C132.996 165.457 132.409 165.625 128.318 166.194C99.0652 170.261 75.849 182.194 62.7099 199.914C58.4239 205.695 50.3083 219.596 44.9817 230.281C36.6136 247.066 33.0029 259.838 31.6698 277.368C31.3067 282.142 31.1198 283.12 30.187 285.12C28.2354 289.305 27.5787 293.059 27.7838 298.858C28.0559 306.55 29.7882 311.982 33.7329 317.51C39.6266 325.769 51.4789 330.189 67.0199 329.921C72.9395 329.819 73.0317 329.805 73.1464 328.998C73.2823 328.04 73.5354 328.082 68.1126 328.166C54.7921 328.373 44.3559 325.276 37.844 319.185C29.4101 311.296 26.9475 294.642 32.7374 284.652C35.9249 279.153 41.9756 274.956 50.0522 272.641C55.4561 271.092 82.4851 266.822 103.046 264.268C135.448 260.244 166.838 258.361 195.96 258.693C208.852 258.841 209.361 258.874 212.742 259.783C217.363 261.025 221.036 262.589 224.399 264.747C227.121 266.493 232.106 270.886 232.767 272.121C233.069 272.685 232.277 273.031 225.734 275.201C207.281 281.322 188.947 288.607 166.639 298.681C155.747 303.601 144.366 308.406 136.043 311.601C133.038 312.754 130.463 313.882 130.319 314.109C130.177 314.335 130.286 314.746 130.563 315.023C130.991 315.452 131.953 315.185 137.015 313.238C145.713 309.891 155.498 305.752 166.327 300.837C189.542 290.302 208.07 282.957 227.649 276.529C238.903 272.835 242.502 272.266 254.603 272.272C261.409 272.275 263.195 272.388 265.144 272.937C268.273 273.819 269.968 274.724 271.168 276.151C272.092 277.249 272.146 277.491 271.919 279.536C271.446 283.808 269.862 291.053 268.396 295.657C263.531 310.937 254.8 322.004 242.856 328.034C238.458 330.254 235.053 331.295 229.392 332.147C198.979 336.725 165.742 332.429 129.05 319.178C123.592 317.207 123.491 317.186 121.955 317.698L120.398 318.217L123.485 319.411C154.43 331.375 186.091 337.174 213.156 335.833C232.955 334.852 239.766 333.162 249.178 326.896C262.047 318.329 270.71 302.454 273.771 281.829C274.335 278.024 274.347 277.417 273.871 276.365C273.439 275.408 273.396 274.418 273.646 271.175C274.058 265.839 273.719 254.06 272.99 248.411C271.744 238.743 269.196 229.776 265.694 222.732C263.191 217.699 263.114 217.568 259.158 211.626C254.304 204.335 250.785 200.062 244.45 193.761C232.183 181.562 218.999 173.821 202.344 169.041L197.618 167.685L196.062 152.302L194.506 136.918L196.15 134.113C197.055 132.57 198.287 130.035 198.888 128.479C200.762 123.628 203.256 112.232 202.739 110.884C202.518 110.309 201.579 110.182 201.268 110.686ZM93.3234 115.833C92.1188 116.638 90.2346 118.4 89.1365 119.749C87.0694 122.289 84.2353 126.691 84.1191 127.543C83.9778 128.581 84.1657 128.94 84.8501 128.94C85.3382 128.94 85.976 128.227 86.8851 126.664C88.9558 123.103 92.0544 119.24 93.9652 117.837C95.9725 116.364 98.1889 116.089 99.1501 117.194C100.948 119.261 99.7569 127.651 96.6777 134.613L95.7503 136.711L94.7731 135.733L93.7962 134.756L94.7862 132.995C96.3378 130.235 98.3918 125.218 98.1878 124.686C98.0862 124.422 97.6891 124.205 97.3056 124.205C96.7953 124.205 96.3841 124.768 95.7762 126.3C95.0899 128.028 92.6306 133.262 92.3541 133.583C92.3119 133.632 90.8986 133.323 89.2133 132.897C86.5748 132.23 85.8539 132.177 84.0167 132.519C81.659 132.958 80.9502 133.394 80.4479 134.715C78.5732 139.646 91.0706 144.841 95.5791 141.005C95.9616 140.68 97.0463 138.775 97.9896 136.772C100.929 130.53 102.088 126.049 102.1 120.865C102.109 117.326 101.68 116.296 99.6906 115.083C97.774 113.915 95.8585 114.141 93.3234 115.833ZM150.908 123.342C150.312 124.895 154.871 130.15 158.131 131.667C160.573 132.804 163.179 132.92 163.179 131.893C163.179 131.156 162.514 130.767 161.237 130.754C158.952 130.73 155.586 128.235 153.301 124.87C151.803 122.664 151.293 122.339 150.908 123.342ZM82.9553 134.797C81.3232 135.748 83.3862 138.167 86.9758 139.511C89.2206 140.351 93.1289 140.481 94.1305 139.749C95.6232 138.657 93.0579 136.01 89.477 134.947C87.391 134.327 83.8998 134.247 82.9553 134.797ZM45.6897 155.93C45.4417 156.331 45.7859 161.016 46.1294 161.912C46.2627 162.259 45.7294 162.459 44.1916 162.636C40.507 163.063 39.8841 163.303 39.8841 164.295C39.8841 165.3 40.3398 165.36 44.3136 164.879L46.5577 164.607L46.8167 167.372C47.1081 170.48 47.6777 171.433 48.8652 170.797C49.3755 170.524 49.5419 170.162 49.4086 169.614C49.303 169.18 49.1063 167.822 48.9708 166.596L48.7249 164.368L49.9502 164.156C50.6241 164.04 51.9488 163.836 52.894 163.704C54.9764 163.413 55.758 162.688 54.9072 161.837C54.4045 161.334 53.9678 161.314 51.5041 161.681C49.4159 161.991 48.612 161.994 48.4252 161.692C48.2864 161.467 48.0653 160.236 47.9342 158.957C47.803 157.678 47.6009 156.384 47.4843 156.081C47.2396 155.442 46.0529 155.343 45.6897 155.93ZM123.967 172.116C123.849 172.424 124.06 173.017 124.434 173.434C125.766 174.916 130.992 178.919 134.222 180.931C151.914 191.952 170.698 193.247 187.984 184.637C193.665 181.808 203.398 174.624 203.168 173.43C202.939 172.242 201.884 172.687 198.503 175.398C179.678 190.493 158.561 192.394 138.031 180.841C134.436 178.818 127.966 174.176 126.418 172.508C125.433 171.446 124.295 171.264 123.967 172.116ZM9.28811 216.338C7.32814 217.14 6.90235 218.558 7.2593 223.096C7.40135 224.899 7.45417 226.562 7.37695 226.791C7.29973 227.02 5.85953 228.124 4.17675 229.244C2.49397 230.364 0.844698 231.695 0.512148 232.203C-0.296097 233.437 0.0543004 235.519 1.27486 236.735C2.18837 237.646 2.30129 237.663 6.69 237.553L11.172 237.441L13.0747 240.339C15.4259 243.921 15.9639 244.416 17.7679 244.658C18.9954 244.822 19.3786 244.691 20.4367 243.743L21.6722 242.636V238.151V233.667L24.7682 231.562C26.4711 230.404 28.0693 229.182 28.3196 228.847C29.1012 227.802 28.8732 225.637 27.8544 224.426C26.7096 223.065 25.7612 222.872 21.8456 223.204C20.1377 223.348 18.4724 223.415 18.1446 223.352C17.8168 223.289 16.6876 221.926 15.6357 220.324C12.9283 216.2 11.6247 215.381 9.28811 216.338ZM9.50155 218.849C9.27791 219.267 9.25278 220.809 9.43453 222.947C9.83483 227.651 9.58241 228.178 5.68178 230.773C2.33188 233.003 1.74437 233.843 2.75404 234.958C3.33281 235.598 3.74112 235.64 7.43086 235.435C12.2636 235.167 12.4085 235.243 15.1516 239.477C17.1888 242.621 18.2655 243.228 19.3746 241.858C19.7461 241.4 19.9705 240.76 19.8736 240.438C19.7764 240.115 19.6496 238.352 19.5921 236.521C19.4682 232.604 19.5094 232.535 23.5735 229.785C26.5552 227.768 27.1828 226.937 26.5774 225.806C26.1997 225.099 25.9079 225.061 21.689 225.168C16.4301 225.301 16.6945 225.439 13.817 221.056C12.1925 218.582 11.7831 218.179 10.894 218.179C10.2628 218.179 9.72046 218.44 9.50155 218.849ZM72.4332 243.152C68.4594 243.871 65.8926 244.932 63.9115 246.676C62.0845 248.285 61.1921 249.903 61.1921 251.608V252.643L64.0149 252.335C66.9194 252.019 72.4977 252.402 76.0363 253.161C77.5085 253.476 77.9471 253.726 77.9471 254.247C77.9471 255.282 77.5253 255.356 74.8095 254.796C68.0685 253.407 60.2891 253.919 57.4412 255.938C54.827 257.792 54.037 260.64 55.1341 264.255L55.5759 265.712H60.2964C64.9142 265.712 65.0191 265.73 65.1331 266.531C65.1998 267.002 65.0577 267.351 64.7991 267.351C64.5515 267.351 64.4302 267.432 64.5292 267.531C64.6283 267.631 69.4501 266.978 75.244 266.081C87.5615 264.173 102.267 262.18 110.637 261.282C114.518 260.866 116.556 260.502 116.556 260.225C116.556 259.992 115.185 258.486 113.509 256.877C105.6 249.283 97.0852 244.761 87.6427 243.139C83.6838 242.458 76.2286 242.465 72.4332 243.152ZM56.2749 267.974C55.0951 268.127 52.9552 269.522 53.9073 269.517C54.2078 269.516 56.5845 269.126 59.1888 268.65L63.9239 267.784L60.6457 267.808C58.8428 267.821 56.8759 267.896 56.2749 267.974Z" fill="#051564"/>
</g>
<defs>
<clipPath id="clip0_104_9570">
<rect width="275" height="336.192" fill="white"/>
</clipPath>
</defs>
</svg>
