<svg width="463" height="516" viewBox="0 0 463 516" fill="none" xmlns="http://www.w3.org/2000/svg">
<path d="M444.858 4.31691C449.445 -1.81928 460.211 -0.571742 461.072 7.04055C461.714 12.7128 462.042 18.4594 462.042 24.2671C462.042 59.9211 449.685 93.2396 428.251 121.573C449.686 150.514 462.042 184.548 462.042 220.967C462.042 233.849 460.494 246.432 457.548 258.597C460.495 272.294 462.042 286.463 462.042 300.967C462.041 419.506 358.783 515.601 231.407 515.601C104.032 515.601 0.774124 419.506 0.773438 300.967C0.773438 286.463 2.3198 272.294 5.2666 258.597C2.32003 246.432 0.773533 233.849 0.773438 220.967C0.773438 184.549 13.1289 150.515 34.5635 121.574C13.1291 93.2405 0.77367 59.9212 0.773438 24.2671C0.773446 18.4597 1.10161 12.7135 1.74316 7.04152C2.60426 -0.570987 13.3691 -1.81913 17.9561 4.31691C35.6159 27.9424 65.909 47.9867 104.219 61.9185C140.679 41.9583 184.4 30.3326 231.407 30.3325C278.414 30.3325 322.136 41.9585 358.596 61.9185C396.906 47.9867 427.199 27.9425 444.858 4.31691ZM232.79 256.294C215.414 263.831 202.463 279.645 198.911 298.762C204.246 314.712 216.339 327.565 231.79 333.922C248.471 327.059 261.237 312.625 265.812 294.897C261.329 277.526 248.98 263.316 232.79 256.294ZM346.382 121.005C297.614 121.006 257.536 156.615 252.963 202.157C246.682 199.82 239.885 198.542 232.79 198.542C225.398 198.543 218.33 199.929 211.831 202.456C207.404 156.771 167.256 121.005 118.382 121.005C66.5467 121.006 24.5254 161.236 24.5254 210.862C24.5259 260.487 66.5471 300.717 118.382 300.717C161.161 300.717 197.255 273.315 208.561 235.844C215.931 232.441 224.139 230.543 232.79 230.542C241.074 230.542 248.951 232.284 256.075 235.42C267.236 273.108 303.441 300.717 346.382 300.717C398.217 300.717 440.238 260.487 440.238 210.862C440.238 161.236 398.217 121.005 346.382 121.005ZM118.382 153.005C152.544 153.005 180.238 178.909 180.238 210.862C180.238 242.814 152.544 268.717 118.382 268.717C84.2202 268.717 56.526 242.814 56.5254 210.862C56.5254 178.909 84.2198 153.006 118.382 153.005ZM346.382 153.005C380.544 153.005 408.238 178.909 408.238 210.862C408.238 242.814 380.544 268.717 346.382 268.717C312.22 268.717 284.527 242.814 284.526 210.862C284.526 178.909 312.22 153.006 346.382 153.005ZM140.306 193.064C133.332 186.091 123.293 184.825 117.882 190.236C112.472 195.647 113.738 205.687 120.711 212.66C127.684 219.632 137.723 220.898 143.134 215.488C148.545 210.077 147.279 200.037 140.306 193.064ZM368.306 193.064C361.332 186.091 351.293 184.825 345.882 190.236C340.472 195.647 341.738 205.687 348.711 212.66C355.684 219.632 365.723 220.898 371.134 215.488C376.545 210.077 375.279 200.037 368.306 193.064Z" fill="white"/>
</svg>
